<?xml version="1.0" encoding="UTF-8"?>
<!DOCTYPE svg PUBLIC "-//W3C//DTD SVG 1.1//EN" "http://www.w3.org/Graphics/SVG/1.1/DTD/svg11.dtd">
<svg xmlns="http://www.w3.org/2000/svg" version="1.1" width="1440px" height="1440px" style="shape-rendering:geometricPrecision; text-rendering:geometricPrecision; image-rendering:optimizeQuality; fill-rule:evenodd; clip-rule:evenodd" xmlns:xlink="http://www.w3.org/1999/xlink">
<g><path style="opacity:1" fill="#f8f8f8" d="M 463.5,265.5 C 553.167,265.5 642.833,265.5 732.5,265.5C 732.5,306.833 732.5,348.167 732.5,389.5C 688.5,389.5 644.5,389.5 600.5,389.5C 600.5,425.5 600.5,461.5 600.5,497.5C 600.143,601.505 600.643,705.505 602,809.5C 607.939,858.775 634.773,890.275 682.5,904C 720.017,912.726 757.35,911.726 794.5,901C 815.518,894.25 833.018,882.417 847,865.5C 854.427,855.643 859.427,844.643 862,832.5C 863.433,784.852 863.933,737.185 863.5,689.5C 863.5,681.833 863.5,674.167 863.5,666.5C 834.5,666.5 805.5,666.5 776.5,666.5C 762.5,666.5 748.5,666.5 734.5,666.5C 734.5,621.5 734.5,576.5 734.5,531.5C 820.833,531.5 907.167,531.5 993.5,531.5C 993.19,534.713 993.523,537.713 994.5,540.5C 998.05,625.129 999.217,709.795 998,794.5C 995.185,878.641 960.351,945.807 893.5,996C 845.233,1027.03 792.233,1042.19 734.5,1041.5C 680.42,1041.81 629.753,1028.98 582.5,1003C 577.084,999.97 572.084,996.47 567.5,992.5C 567.027,991.094 566.027,990.427 564.5,990.5C 515.594,955.714 483.761,909.047 469,850.5C 467.457,843.578 466.457,836.578 466,829.5C 464.805,730.837 464.305,632.17 464.5,533.5C 464.5,484.167 464.5,434.833 464.5,385.5C 418.833,385.5 373.167,385.5 327.5,385.5C 327.5,345.833 327.5,306.167 327.5,266.5C 373.003,266.832 418.336,266.499 463.5,265.5 Z"/></g>
<g><path style="opacity:1" fill="#909094" d="M 463.5,265.5 C 553.332,264.501 643.332,264.167 733.5,264.5C 733.5,306.167 733.5,347.833 733.5,389.5C 733.167,389.5 732.833,389.5 732.5,389.5C 732.5,348.167 732.5,306.833 732.5,265.5C 642.833,265.5 553.167,265.5 463.5,265.5 Z"/></g>
<g><path style="opacity:1" fill="#5f5f5f" d="M 327.5,266.5 C 327.5,306.167 327.5,345.833 327.5,385.5C 373.167,385.5 418.833,385.5 464.5,385.5C 464.5,434.833 464.5,484.167 464.5,533.5C 463.501,484.67 463.168,435.67 463.5,386.5C 417.833,386.5 372.167,386.5 326.5,386.5C 326.168,346.33 326.501,306.33 327.5,266.5 Z"/></g>
<g><path style="opacity:1" fill="#2e2e2e" d="M 732.5,389.5 C 732.833,389.5 733.167,389.5 733.5,389.5C 689.67,390.499 645.67,390.832 601.5,390.5C 601.832,426.337 601.498,462.004 600.5,497.5C 600.5,461.5 600.5,425.5 600.5,389.5C 644.5,389.5 688.5,389.5 732.5,389.5 Z"/></g>
<g><path style="opacity:1" fill="#7b7b7b" d="M 994.5,540.5 C 993.523,537.713 993.19,534.713 993.5,531.5C 907.167,531.5 820.833,531.5 734.5,531.5C 734.5,576.5 734.5,621.5 734.5,666.5C 733.501,621.336 733.168,576.003 733.5,530.5C 820.5,530.5 907.5,530.5 994.5,530.5C 994.5,533.833 994.5,537.167 994.5,540.5 Z"/></g>
<g><path style="opacity:1" fill="#262626" d="M 776.5,666.5 C 805.5,666.5 834.5,666.5 863.5,666.5C 863.5,674.167 863.5,681.833 863.5,689.5C 862.508,682.352 862.175,675.019 862.5,667.5C 833.662,667.831 804.995,667.498 776.5,666.5 Z"/></g>
<g><path style="opacity:1" fill="#767676" d="M 564.5,990.5 C 566.027,990.427 567.027,991.094 567.5,992.5C 565.973,992.573 564.973,991.906 564.5,990.5 Z"/></g>
<g><path style="opacity:1" fill="#f6f6f6" d="M 590.5,1113.5 C 627.092,1111.3 651.592,1127.3 664,1161.5C 671.098,1200.14 656.598,1226.98 620.5,1242C 583.166,1250.58 556,1237.75 539,1203.5C 528.528,1170.2 537.361,1143.36 565.5,1123C 573.472,1118.51 581.805,1115.35 590.5,1113.5 Z"/></g>
<g><path style="opacity:1" fill="#f6f6f6" d="M 855.5,1113.5 C 892.092,1111.3 916.592,1127.3 929,1161.5C 936.098,1200.14 921.598,1226.98 885.5,1242C 848.166,1250.58 821,1237.75 804,1203.5C 793.528,1170.2 802.361,1143.36 830.5,1123C 838.472,1118.51 846.805,1115.35 855.5,1113.5 Z"/></g>
</svg>
